<?xml version="1.0" standalone="no"?>
<!DOCTYPE svg PUBLIC "-//W3C//DTD SVG 20010904//EN"
 "http://www.w3.org/TR/2001/REC-SVG-20010904/DTD/svg10.dtd">
<svg version="1.0" xmlns="http://www.w3.org/2000/svg"
 width="96.000000pt" height="96.000000pt" viewBox="0 0 96.000000 96.000000"
 preserveAspectRatio="xMidYMid meet">

<g transform="translate(0.000000,96.000000) scale(0.100000,-0.100000)"
fill="#000000" stroke="none">
<path d="M93 873 c-7 -2 -13 -12 -13 -22 0 -9 171 -187 379 -395 283 -283 384
-377 396 -372 9 3 19 6 21 6 2 0 4 8 4 18 0 9 -78 96 -174 191 l-175 175 25
29 c74 87 -46 208 -133 133 l-28 -25 -136 135 c-74 74 -140 134 -145 133 -5 0
-15 -3 -21 -6z"/>
<path d="M385 764 c-29 -8 -47 -34 -35 -50 8 -8 35 -10 95 -6 70 4 96 1 155
-18 45 -14 75 -30 82 -43 15 -29 3 -112 -23 -153 -24 -40 -19 -67 13 -62 28 4
60 58 73 127 l11 54 65 -55 c84 -71 84 -85 -1 -157 -69 -58 -84 -93 -43 -99
15 -2 43 17 97 70 66 64 76 78 76 108 0 30 -10 44 -69 101 -128 123 -246 180
-386 185 -49 1 -99 1 -110 -2z"/>
<path d="M91 593 c-69 -66 -81 -83 -81 -111 0 -81 224 -247 380 -282 118 -26
251 2 222 47 -4 5 -53 10 -112 9 -86 0 -115 4 -162 23 -96 38 -268 167 -268
201 0 18 73 92 123 125 34 22 34 58 0 63 -16 2 -44 -18 -102 -75z"/>
<path d="M227 584 c-12 -13 -7 -64 9 -97 48 -93 128 -148 218 -151 48 -1 51 1
51 23 0 22 -6 26 -56 36 -88 17 -134 58 -169 150 -15 38 -37 54 -53 39z"/>
</g>
</svg>
