<?xml version="1.0" encoding="utf-8"?>
<svg version="1.0" xmlns="http://www.w3.org/2000/svg" width="96.000000pt" height="96.000000pt" viewBox="0 0 96.000000 96.000000" preserveAspectRatio="xMidYMid meet">
  <g transform="translate(0.000000,96.000000) scale(0.100000,-0.100000)" fill="#000000" stroke="none">
    <path d="M350 751 c-110 -35 -209 -99 -292 -189 -65 -70 -65 -98 1 -164 33 -33 54 -46 65 -42 28 11 19 51 -19 80 -19 14 -35 34 -35 44 0 23 100 114 175 159 69 42 148 70 196 71 43 0 75 21 66 44 -9 22 -84 21 -157 -3z"/>
    <path d="M617 734 c-21 -21 -4 -45 49 -70 61 -29 197 -133 213 -163 16 -30 5 -46 -76 -111 -186 -150 -336 -177 -509 -90 -88 43 -114 45 -114 11 0 -14 17 -30 53 -51 211 -122 432 -84 641 111 66 62 71 69 71 109 0 39 -5 47 -67 105 -94 89 -238 172 -261 149z"/>
    <path d="M431 646 c-87 -48 -50 -186 49 -186 51 0 100 49 100 99 0 75 -83 124 -149 87z"/>
    <path d="M677 604 c-4 -4 -7 -22 -7 -41 0 -72 -46 -142 -115 -174 -96 -45 -207 1 -250 103 -8 21 -15 48 -15 62 0 30 -13 40 -41 31 -19 -6 -21 -12 -16 -58 8 -67 51 -134 110 -174 117 -79 276 -43 351 80 23 38 29 59 30 110 1 55 -1 62 -19 65 -12 2 -24 0 -28 -4z"/>
  </g>
  <path style="stroke: rgba(0, 0, 0, 0); paint-order: stroke; mix-blend-mode: darken; fill: rgba(96, 125, 255, 0.733);" d="M 14.529 53.753 C 15.182 53.753 16.108 51.551 16.65 51.009 C 17.991 49.668 19.615 48.293 20.89 47.018 C 21.348 46.56 21.907 45.512 22.636 45.147 C 27.344 42.793 31.815 39.061 36.604 36.667 C 39.516 35.211 42.905 35.024 45.833 34.048 C 48.006 33.323 51.48 33.923 53.815 33.923 C 57.542 33.923 63.343 32.95 66.536 34.546 C 67.116 34.837 68.844 34.36 69.28 34.796 C 70.601 36.117 73.932 37.621 75.765 38.537 C 77.531 39.421 80.59 39.995 82.001 41.406 C 82.558 41.963 83.863 41.647 84.495 42.279 C 85.064 42.848 86.182 43.093 86.74 43.651 C 87.278 44.188 87.943 45.437 88.611 45.771 C 89.788 46.359 92.155 49.117 92.602 50.011 C 93.427 51.662 96.528 53 97.216 54.376 C 98.195 56.334 95.805 59.069 95.096 60.487 C 94.077 62.526 91.564 64.144 89.858 65.85 C 87.768 67.939 85.836 69.919 82.998 71.338 C 79.382 73.145 74.898 76.449 70.776 77.823 C 68.501 78.581 65.638 78.958 63.418 80.068 C 60.852 81.351 57.044 80.031 54.314 80.941 C 53.79 81.115 52.935 80.695 52.443 80.941 C 51.517 81.404 49.665 81.065 48.577 81.065 C 44.444 81.065 40.212 80.558 37.602 77.948 C 36.763 77.109 34.236 77.575 33.486 76.825 C 32.679 76.018 30.802 75.857 29.745 75.328 C 28.428 74.67 27.341 73.798 26.377 72.834 C 25.252 71.708 22.375 70.708 20.89 69.966 C 18.436 68.739 16.306 64.663 15.153 62.358 C 14.261 60.573 11.511 59.19 12.409 56.496 C 12.947 54.882 14.695 54.045 15.402 52.63"/>
</svg>