<?xml version="1.0" encoding="utf-8"?>
<svg version="1.1" id="Capa_1" xmlns="http://www.w3.org/2000/svg" x="0px" y="0px" viewBox="0 0 2166 2078" style="enable-background:new 0 0 2166 2078;">
  <defs>
    <linearGradient gradientUnits="userSpaceOnUse" x1="1133.535" y1="178.977" x2="1133.535" y2="1898.839" id="gradient-0">
      <stop offset="0" style="stop-color: rgb(100% 18.039% 36.078%)"/>
      <stop offset="1" style="stop-color: rgb(66.548% 0% 19.525%)"/>
    </linearGradient>
  </defs>
  <g transform="matrix(1, 0, 0, 1, -75.588159, 35.094544)">
    <path style="fill: rgb(231, 55, 83); stroke: rgb(186, 218, 85); paint-order: fill;" d="M1676.253,207.504c-4.35-1.599-8.733-3.104-13.129-4.564c-1.186-0.395-2.375-0.778-3.563-1.163 c-3.741-1.21-7.497-2.373-11.268-3.484c-0.736-0.217-1.467-0.448-2.205-0.661c-4.424-1.278-8.869-2.482-13.329-3.626 c-1.084-0.279-2.171-0.542-3.256-0.811c-3.671-0.914-7.353-1.784-11.045-2.609c-1.027-0.228-2.051-0.469-3.08-0.691 c-4.523-0.977-9.058-1.894-13.609-2.738c-0.787-0.146-1.579-0.276-2.367-0.418c-3.903-0.704-7.816-1.359-11.736-1.966 c-1.12-0.173-2.24-0.349-3.36-0.514c-4.651-0.686-9.309-1.326-13.98-1.878c-0.077-0.009-0.153-0.015-0.23-0.024 c-4.581-0.54-9.173-0.993-13.768-1.403c-1.099-0.099-2.199-0.191-3.299-0.282c-4.323-0.356-8.651-0.667-12.983-0.911 c-0.375-0.021-0.749-0.051-1.124-0.07c-4.75-0.256-9.506-0.432-14.263-0.555c-0.957-0.024-1.913-0.037-2.869-0.057 c-4.109-0.081-8.22-0.115-12.332-0.097c-0.748,0.003-1.495-0.003-2.244,0.005c-4.786,0.042-9.574,0.149-14.359,0.325 c-0.658,0.025-1.316,0.062-1.973,0.088c-4.21,0.172-8.419,0.397-12.623,0.671c-0.898,0.06-1.796,0.114-2.693,0.176 c-4.836,0.341-9.669,0.735-14.494,1.211c-0.026,0.003-0.051,0.006-0.078,0.009c-4.698,0.464-9.39,1.011-14.073,1.603 c-0.935,0.118-1.867,0.237-2.801,0.361c-4.707,0.62-9.409,1.286-14.097,2.034c0.042,0.002,0.083,0.003,0.124,0.005 c-147.532,23.513-284.345,110.02-347.265,245.037c-24.511-52.598-60.236-97.837-103.439-134.861 c-5.401-4.629-10.919-9.127-16.545-13.497c-5.627-4.369-11.363-8.608-17.202-12.716c-5.839-4.108-11.779-8.083-17.816-11.926 c-6.035-3.842-12.167-7.552-18.385-11.125c-12.437-7.149-25.225-13.755-38.305-19.81c-3.27-1.512-6.559-2.992-9.864-4.436 c-9.917-4.332-19.991-8.35-30.196-12.049c-10.206-3.699-20.542-7.081-30.985-10.135c-48.737-14.258-99.806-21.444-150.703-20.982 c-13.633,0.124-27.254,0.797-40.814,2.028c-40.682,3.698-80.821,12.432-119.119,26.505 c-97.286,35.749-185.005,99.891-252.309,180.609c-4.342,5.207-8.599,10.483-12.768,15.826c-4.17,5.343-8.251,10.751-12.242,16.221 c-9.976,13.678-19.384,27.746-28.18,42.156c-7.037,11.528-13.681,23.276-19.91,35.216c-7.785,14.925-14.921,30.153-21.362,45.633 c-2.576,6.193-5.041,12.426-7.392,18.695c-15.281,40.754-25.742,83.082-30.579,126.112c-0.807,7.182-1.458,14.382-1.949,21.598 c-0.735,10.824-1.111,21.684-1.113,32.564c-0.025,136.246,38.935,264.105,101.303,381.53h-0.001 c0.005,0.009,0.01,0.018,0.014,0.025c205.562,387.004,665.609,660.53,824.562,746.451c0.111,0.061,0.224,0.122,0.335,0.182 c1.42,0.767,2.816,1.52,4.187,2.257c0.128,0.068,0.255,0.137,0.382,0.206c5.564,2.989,10.716,5.728,15.437,8.211 c0.242,0.128,0.485,0.257,0.724,0.382c1.038,0.546,2.055,1.08,3.05,1.6c0.242,0.127,0.477,0.251,0.717,0.376 c4.228,2.211,8.047,4.187,11.445,5.93c0.347,0.179,0.692,0.357,1.03,0.53c0.645,0.331,1.276,0.653,1.888,0.965 c0.323,0.166,0.634,0.324,0.948,0.483c0.616,0.315,1.232,0.628,1.812,0.922c0.15,0.076,0.285,0.145,0.432,0.219 c1.183,0.6,2.281,1.155,3.308,1.672c0.239,0.121,0.491,0.248,0.722,0.364c0.418,0.21,0.805,0.404,1.194,0.598 c0.318,0.161,0.631,0.316,0.931,0.467c0.337,0.169,0.664,0.332,0.977,0.488c0.304,0.151,0.586,0.291,0.866,0.431 c0.249,0.124,0.506,0.251,0.737,0.366c0.291,0.145,0.55,0.273,0.811,0.401c0.513,0.255,0.98,0.484,1.376,0.678 c0.064,0.031,0.137,0.067,0.197,0.097c0.225,0.111,0.413,0.203,0.596,0.292c0.108,0.052,0.206,0.101,0.3,0.146 c0.115,0.057,0.219,0.107,0.312,0.152c0.373,0.182,0.58,0.282,0.58,0.282s981.298-472.859,981.175-1156.703 C2064.015,510.023,1894.124,287.563,1676.253,207.504z"/>
    <path style="stroke: url(&quot;#gradient-0&quot;); fill: rgb(231, 55, 83); paint-order: stroke markers;" d="M1676.253,207.504c-4.35-1.599-8.733-3.104-13.129-4.564c-1.186-0.395-2.375-0.778-3.563-1.163 c-3.741-1.21-7.497-2.373-11.268-3.484c-0.736-0.217-1.467-0.448-2.205-0.661c-4.424-1.278-8.869-2.482-13.329-3.626 c-1.084-0.279-2.171-0.542-3.256-0.811c-3.671-0.914-7.353-1.784-11.045-2.609c-1.027-0.228-2.051-0.469-3.08-0.691 c-4.523-0.977-9.058-1.894-13.609-2.738c-0.787-0.146-1.579-0.276-2.367-0.418c-3.903-0.704-7.816-1.359-11.736-1.966 c-1.12-0.173-2.24-0.349-3.36-0.514c-4.651-0.686-9.309-1.326-13.98-1.878c-0.077-0.009-0.153-0.015-0.23-0.024 c-4.581-0.54-9.173-0.993-13.768-1.403c-1.099-0.099-2.199-0.191-3.299-0.282c-4.323-0.356-8.651-0.667-12.983-0.911 c-0.375-0.021-0.749-0.051-1.124-0.07c-4.75-0.256-9.506-0.432-14.263-0.555c-0.957-0.024-1.913-0.037-2.869-0.057 c-4.109-0.081-8.22-0.115-12.332-0.097c-0.748,0.003-1.495-0.003-2.244,0.005c-4.786,0.042-9.574,0.149-14.359,0.325 c-0.658,0.025-1.316,0.062-1.973,0.088c-4.21,0.172-8.419,0.397-12.623,0.671c-0.898,0.06-1.796,0.114-2.693,0.176 c-4.836,0.341-9.669,0.735-14.494,1.211c-0.026,0.003-0.051,0.006-0.078,0.009c-4.698,0.464-9.39,1.011-14.073,1.603 c-0.935,0.118-1.867,0.237-2.801,0.361c-4.707,0.62-9.409,1.286-14.097,2.034c54.444,1.295,109.542,10.563,159.946,29.754 c103.918,39.565,187.978,118.971,241.215,215.789c57.867,105.236,78.348,226.322,63.078,345.117 c-16.482,128.218-70.833,248.932-139.827,357.158c-67.998,106.663-151.111,203.134-240.476,292.378 c-86.127,86.007-181.789,166.427-290.338,222.659c-52.244,27.066-108.256,48.539-166.712,57.035 c-27.966,4.063-56.491,5.441-84.54,1.438c-31.731-4.529-62.401-14.797-91.764-27.421c-61.717-26.532-119.56-63.117-175.563-99.95 c-60.262-39.634-118.405-82.538-173.832-128.699c-49.745-41.43-97.511-85.467-144.502-129.978 c-46.685-44.222-92.084-89.882-134.569-138.18c-16.832-19.134-33.277-38.766-49.126-58.899h-0.001 c0.005,0.009,0.01,0.018,0.014,0.025c205.548,386.978,665.588,660.508,824.562,746.451c0.111,0.061,0.224,0.122,0.335,0.182 c1.42,0.767,2.816,1.52,4.187,2.257c0.128,0.068,0.255,0.137,0.382,0.206c5.564,2.989,10.716,5.726,15.437,8.211 c0.242,0.128,0.485,0.257,0.724,0.382c1.038,0.546,2.055,1.08,3.05,1.6c0.242,0.127,0.477,0.251,0.717,0.376 c4.228,2.211,8.047,4.187,11.445,5.93c0.347,0.179,0.692,0.357,1.03,0.53c0.645,0.331,1.276,0.653,1.888,0.965 c0.323,0.166,0.634,0.324,0.948,0.483c0.616,0.315,1.232,0.628,1.812,0.922c0.15,0.076,0.285,0.145,0.432,0.219 c1.183,0.6,2.281,1.155,3.308,1.672c0.239,0.121,0.491,0.248,0.722,0.364c0.418,0.21,0.805,0.404,1.194,0.598 c0.318,0.161,0.631,0.316,0.931,0.467c0.337,0.169,0.664,0.332,0.977,0.488c0.304,0.151,0.586,0.291,0.866,0.431 c0.249,0.124,0.506,0.251,0.737,0.366c0.291,0.145,0.55,0.273,0.811,0.401c0.513,0.255,0.98,0.484,1.376,0.678 c0.064,0.031,0.137,0.067,0.197,0.097c0.225,0.111,0.413,0.203,0.596,0.292c0.108,0.052,0.206,0.101,0.3,0.146 c0.115,0.057,0.219,0.107,0.312,0.152c0.373,0.182,0.58,0.282,0.58,0.282s981.298-472.859,981.175-1156.703 C2064.015,510.023,1894.124,287.563,1676.253,207.504z"/>
  </g>
  <g transform="matrix(0.905078, 0, 0, 0.908963, 26.850848, 135.515932)" style="">
    <path style="fill: rgb(255, 255, 255); fill-rule: nonzero; stroke-opacity: 0; stroke-miterlimit: 1; stroke-dashoffset: 68px; stroke: rgb(252, 253, 255); paint-order: stroke;" d="M 1605.33 330.182 C 1601.48 328.865 1597.61 327.624 1593.73 326.421 C 1592.69 326.096 1591.64 325.781 1590.59 325.464 C 1587.29 324.467 1583.97 323.509 1580.64 322.594 C 1579.99 322.415 1579.35 322.224 1578.69 322.048 C 1574.79 320.995 1570.86 320.004 1566.92 319.061 C 1565.96 318.831 1565.01 318.615 1564.05 318.393 C 1560.81 317.64 1557.56 316.923 1554.3 316.243 C 1553.39 316.055 1552.48 315.857 1551.58 315.675 C 1547.58 314.87 1543.58 314.114 1539.56 313.419 C 1538.87 313.299 1538.17 313.191 1537.47 313.074 C 1534.02 312.495 1530.57 311.955 1527.11 311.454 C 1526.12 311.312 1525.13 311.167 1524.14 311.031 C 1520.04 310.466 1515.92 309.939 1511.79 309.484 C 1511.72 309.476 1511.66 309.472 1511.6 309.464 C 1507.55 309.019 1503.49 308.646 1499.44 308.308 C 1498.47 308.227 1497.5 308.151 1496.52 308.076 C 1492.71 307.783 1488.89 307.526 1485.06 307.326 C 1484.73 307.308 1484.4 307.283 1484.07 307.267 C 1479.88 307.057 1475.67 306.911 1471.48 306.81 C 1470.63 306.79 1469.79 306.78 1468.94 306.763 C 1465.31 306.697 1461.68 306.669 1458.06 306.683 C 1457.4 306.686 1456.74 306.681 1456.07 306.688 C 1451.84 306.722 1447.62 306.81 1443.39 306.956 C 1442.81 306.976 1442.23 307.007 1441.65 307.028 C 1437.94 307.169 1434.22 307.355 1430.5 307.581 C 1429.72 307.63 1428.92 307.675 1428.13 307.725 C 1423.86 308.007 1419.59 308.331 1415.33 308.723 C 1415.31 308.726 1415.29 308.729 1415.26 308.731 C 1411.11 309.113 1406.97 309.564 1402.83 310.051 C 1402.01 310.149 1401.19 310.247 1400.36 310.349 C 1396.2 310.86 1392.05 311.408 1387.91 312.025 C 1387.95 312.027 1387.99 312.027 1388.02 312.029 C 1257.76 331.401 1136.96 402.67 1081.4 513.906 C 1059.76 470.573 1028.22 433.301 990.057 402.799 C 985.288 398.985 980.417 395.28 975.449 391.679 C 970.48 388.079 965.416 384.587 960.26 381.203 C 955.105 377.818 949.859 374.544 944.529 371.377 C 939.2 368.212 933.786 365.155 928.296 362.212 C 917.314 356.322 906.023 350.88 894.474 345.892 C 891.587 344.646 888.683 343.427 885.764 342.236 C 877.008 338.667 868.113 335.357 859.102 332.31 C 850.091 329.263 840.964 326.476 831.744 323.96 C 788.711 312.213 743.619 306.293 698.678 306.673 C 686.641 306.776 674.614 307.33 662.642 308.344 C 626.72 311.391 591.279 318.587 557.463 330.181 C 471.564 359.633 394.111 412.477 334.685 478.978 C 330.85 483.268 327.091 487.615 323.41 492.016 C 319.729 496.418 316.125 500.874 312.602 505.381 C 303.793 516.649 295.486 528.24 287.719 540.111 C 281.506 549.609 275.64 559.287 270.14 569.124 C 263.266 581.42 256.965 593.966 251.278 606.72 C 249.003 611.822 246.827 616.957 244.751 622.122 C 231.258 655.697 222.022 690.57 217.751 726.021 C 217.038 731.938 216.463 737.87 216.03 743.815 C 215.381 752.732 215.049 761.68 215.047 770.643 C 215.026 882.891 249.426 988.227 304.495 1084.97 L 304.494 1084.97 C 304.497 1084.97 304.502 1084.98 304.505 1084.99 C 486.009 1403.84 892.213 1629.18 1032.57 1699.97 C 1032.67 1700.02 1032.77 1700.07 1032.86 1700.12 C 1034.12 1700.74 1035.36 1701.37 1036.57 1701.98 C 1036.67 1702.03 1036.79 1702.09 1036.9 1702.14 C 1041.82 1704.61 1046.37 1706.87 1050.53 1708.91 C 1050.75 1709.02 1050.96 1709.12 1051.17 1709.23 C 1052.09 1709.68 1052.98 1710.11 1053.87 1710.55 C 1054.08 1710.65 1054.28 1710.75 1054.5 1710.86 C 1058.23 1712.67 1061.6 1714.3 1064.6 1715.73 C 1064.91 1715.89 1065.21 1716.03 1065.51 1716.17 C 1066.08 1716.44 1066.64 1716.72 1067.18 1716.97 C 1067.47 1717.11 1067.74 1717.23 1068.02 1717.37 C 1068.56 1717.63 1069.1 1717.89 1069.62 1718.12 C 1069.74 1718.19 1069.87 1718.24 1070 1718.31 C 1071.04 1718.81 1072.01 1719.26 1072.91 1719.69 C 1073.13 1719.79 1073.36 1719.89 1073.55 1719.99 C 1073.93 1720.16 1074.26 1720.31 1074.61 1720.48 C 1074.89 1720.61 1075.17 1720.74 1075.43 1720.86 C 1075.73 1721 1076.02 1721.14 1076.29 1721.27 C 1076.57 1721.39 1076.81 1721.5 1077.06 1721.62 C 1077.28 1721.72 1077.5 1721.83 1077.71 1721.92 C 1077.96 1722.04 1078.19 1722.15 1078.43 1722.25 C 1078.88 1722.46 1079.3 1722.65 1079.64 1722.81 C 1079.7 1722.83 1079.76 1722.87 1079.82 1722.89 C 1080.01 1722.98 1080.18 1723.06 1080.34 1723.13 C 1080.44 1723.18 1080.53 1723.21 1080.6 1723.25 C 1080.71 1723.29 1080.8 1723.34 1080.88 1723.38 C 1081.21 1723.52 1081.39 1723.61 1081.39 1723.61 C 1081.39 1723.61 1947.85 1334.04 1947.74 770.643 C 1947.7 579.416 1797.69 396.139 1605.33 330.182 Z"/>
  </g>
</svg>