<?xml version="1.0" encoding="utf-8"?>
<svg height="800px" width="800px" version="1.1" id="Capa_1" xmlns="http://www.w3.org/2000/svg" viewBox="0 0 47.94 47.94">
  <path style="fill:#ED8A19;" d="M26.285,2.486l5.407,10.956c0.376,0.762,1.103,1.29,1.944,1.412l12.091,1.757 c2.118,0.308,2.963,2.91,1.431,4.403l-8.749,8.528c-0.608,0.593-0.886,1.448-0.742,2.285l2.065,12.042 c0.362,2.109-1.852,3.717-3.746,2.722l-10.814-5.685c-0.752-0.395-1.651-0.395-2.403,0l-10.814,5.685 c-1.894,0.996-4.108-0.613-3.746-2.722l2.065-12.042c0.144-0.837-0.134-1.692-0.742-2.285l-8.749-8.528 c-1.532-1.494-0.687-4.096,1.431-4.403l12.091-1.757c0.841-0.122,1.568-0.65,1.944-1.412l5.407-10.956 C22.602,0.567,25.338,0.567,26.285,2.486z"/>
  <path style="fill: rgb(255, 255, 255);" d="M 25.851 5.83 L 30.387 15.223 C 30.702 15.877 31.312 16.329 32.018 16.434 L 42.161 17.94 C 43.938 18.204 44.647 20.435 43.361 21.715 L 36.022 29.027 C 35.512 29.535 35.278 30.268 35.399 30.986 L 37.132 41.31 C 37.435 43.119 35.578 44.497 33.989 43.644 L 24.917 38.77 C 24.286 38.431 23.532 38.431 22.901 38.77 L 13.829 43.644 C 12.24 44.498 10.383 43.119 10.687 41.31 L 12.419 30.986 C 12.54 30.268 12.307 29.535 11.797 29.027 L 4.457 21.715 C 3.172 20.434 3.881 18.204 5.657 17.94 L 15.801 16.434 C 16.506 16.329 17.116 15.877 17.432 15.223 L 21.967 5.83 C 22.761 4.185 25.056 4.185 25.851 5.83 Z"/>
</svg>