<?xml version="1.0" encoding="utf-8"?>
<svg version="1.0" xmlns="http://www.w3.org/2000/svg" width="48.000000pt" height="48.000000pt" viewBox="0 0 48.000000 48.000000" preserveAspectRatio="xMidYMid meet">
  <g transform="translate(0.000000,48.000000) scale(0.100000,-0.100000)" fill="#000000" stroke="none">
    <path d="M173 427 c-36 -13 -70 -43 -60 -53 3 -3 26 3 50 15 115 56 234 -15 245 -145 5 -64 25 -69 30 -7 10 132 -137 237 -265 190z"/>
    <path d="M197 342 c-36 -40 -9 -102 45 -102 51 0 78 69 40 103 -24 22 -65 21 -85 -1z m63 -28 c11 -12 10 -18 -3 -32 -16 -15 -18 -15 -34 0 -13 14 -14 20 -3 32 7 9 16 16 20 16 4 0 13 -7 20 -16z"/>
    <path d="M44 273 c-9 -47 10 -118 41 -159 31 -40 103 -74 157 -74 72 0 168 59 154 96 -5 13 -13 10 -45 -19 -118 -107 -299 -9 -277 149 4 34 2 44 -9 44 -8 0 -17 -15 -21 -37z"/>
    <path d="M152 208 c-18 -18 -14 -53 9 -74 30 -27 128 -27 158 0 23 21 27 56 9 74 -16 16 -160 16 -176 0z m158 -27 c0 -16 -43 -41 -70 -41 -27 0 -70 25 -70 41 0 5 32 9 70 9 39 0 70 -4 70 -9z"/>
  </g>
  <ellipse style="stroke: rgba(0, 0, 0, 0); fill: rgb(155, 164, 214); mix-blend-mode: darken;" cx="28.217" cy="30.618" rx="18.333" ry="18.333"/>
</svg>